<?xml version="1.0" encoding="UTF-8"?>
<svg id="Layer_1" xmlns="http://www.w3.org/2000/svg" version="1.1" viewBox="0 0 883.9 826.5">
    <!-- Generator: Adobe Illustrator 29.7.1, SVG Export Plug-In . SVG Version: 2.1.1 Build 8)  -->
    <path d="M311.6,293h175.5s5.8,3.2,5.8,3.2l67.4,66.6,1.6,5.4v212.1c-1.2,13.1-10.8,20.8-23.5,21.5h-220.1c-13.9-.2-24.3-8.3-25.5-22.5v-255.1c.8-14.4,3.1-26.8,18.8-31.2ZM475.9,311.8h-160.5c-.2,0-2.5,2.3-2.5,2.5v266l1.5,1.5h227l1.5-1.5v-204.5h-50.5c-5.8,0-16.5-10.2-16.5-16.5v-47.5ZM527.9,358.8l-34-34v30.5c0,.4,2.3,3.5,2.5,3.5h31.5Z"/>
    <path d="M215.2,696.1c2.6-2.7,8.8-4.4,12.4-2.6,90.5,88.7,224.5,113.9,340.9,61.4,32.1-14.5,59.8-36.9,86.1-59.9,12-3.4,20.5,7.8,10.8,17.8-114.4,118.1-310.1,117.6-433,12.9-6.9-5.8-26.7-20-17.2-29.6Z"/>
    <path d="M271.2,701.5c-1.2-1.3-2.1-4.4-2.3-6.2-2.2-19.5,3.4-42.2-2.7-61.3-7.1-22.2-31-36.9-52.6-42.3-24.6,32.4-67.7,37.2-99.1,11-3.3-2.7-9.3-11-12.9-10.9-9.9,0-31.5,13.4-38.2,21-23.8,27.2-9.5,79.7-13.5,113.5-2.6,11.2-18.6,10.7-20-.9,3-54.4-15.4-113.6,42.4-144.7,7.8-4.2,30.9-13,39-10.6,2.9.9,14.5,15.9,18.7,19.3,19.3,15.8,46.6,13.8,63.5-4.5,4-4.4,9-16.4,14.7-15.8,32.8,3.5,70.5,30.6,78.5,63.6s4.1,49.3,2.2,62.6-11.8,12.5-17.6,6.3Z"/>
    <path d="M675.7,569c5.8-.3,8.4,8.6,12.2,13.3,18.2,22.3,48.1,23.6,69,4.1,4-3.7,11.8-16.1,16.4-16.6,11-1.1,36.4,10.1,45.8,16.3,49.9,32.6,31.6,91.3,34.2,141.9-4.5,9.3-15.5,8.7-19.3-.8-5.3-47.5,18-105-36.5-129.5-3.2-1.4-13.5-5.7-16.3-5.8-4.1-.2-5.4,4.8-7.9,7-33.6,30.5-74.7,26.8-104.2-6.8-19.8,4.4-41,17.3-49.2,36.5-9.1,21.4-3.1,44.7-5.1,66.9-1.1,12.4-17.7,12.3-19.1,1-1.5-12.6-1.1-42.1,0-55,3.3-36.7,44.3-70.2,79.8-72.3Z"/>
    <path d="M672.7,291.1c1.9-.2,3.8-.6,5.8-.3,4.6.5,10,12.1,13.9,16.1,22,22.3,50.4,16.2,70.1-5,6.7-7.2,4.9-12,16.7-10.7,33.7,3.6,71.6,35.3,74.8,70.2,3.2,35.4-2.4,75.2,0,111,0,13.3-18.6,14.3-20,.9-2.5-35.5,3-74.9,0-109.9s-29.7-46.8-54.1-50.9c-4.8,4.5-8.8,9.8-14,13.9-30,22.9-72.8,16-94.9-14-29,6.4-52.5,26.1-55,57-.8,9.7,4,23.8-10.5,22.5s-8.1-2.1-8.6-7.4c-4.5-47.1,28.8-88.3,75.8-93.3Z"/>
    <path d="M432.7,24.1c109.8-11.2,107.6,161.6,14.7,168.7-95.5,7.3-112.2-158.7-14.7-168.7ZM433.7,44.1c-69.5,8.3-55.4,133.9,11.7,128.7,67-5.2,70.5-138.6-11.7-128.7Z"/>
    <path d="M149.7,405.1c113.6-11.6,97.7,169.1,3.8,162.6-80.1-5.6-93-153.5-3.8-162.6ZM153.7,424.1c-72.2,6.8-53.1,130,9.7,123.7,58.8-5.9,67.7-131-9.7-123.7Z"/>
    <path d="M714.7,405.1c109.9-11.2,100,158.2,12.7,162.7-83.9,4.3-106-153.2-12.7-162.7ZM719.7,424.1c-81.3,7.7-44,150.7,22.2,120.2,49.3-22.7,47.2-126.8-22.2-120.2Z"/>
    <path d="M149.7,132.1c98.3-10.1,100.8,136,25,157-92.3,25.5-123.9-146.8-25-157ZM152.7,151.1c-65.9,6.5-52.1,114.5-.2,120.6,67.4,7.9,80.9-128.5.2-120.6Z"/>
    <path d="M718.7,132.1c95.2-8.8,98.6,135.5,24.6,156.6-92.7,26.5-127.7-147.1-24.6-156.6ZM720.7,151.1c-75.9,7.2-46.4,141.2,18.5,118.5,51.7-18.1,51.1-125.1-18.5-118.5Z"/>
    <path d="M104.8,311.9c-27,5.6-52.6,23.9-54.9,53.4-2.7,35.1,2.2,73.6,0,109-1.8,11.4-18.5,11.7-20-.9,2.1-36-2.8-75.3.2-110.9,2.6-30.8,26.6-55.2,54.4-65.6,6.4-2.4,21.7-7.2,28-6s10.9,13.1,14.5,16.5c20.1,19.5,51.7,16.4,68.5-5.6,3.3-4.3,4.6-12.2,10-12,13.1.5,31.3,7.8,42.5,14.6,7.2,4.4,19.1,11.1,15.2,21-6.1,15.3-20.6-.9-28.1-5.1s-14-6.4-21.6-8.1c-27.5,36.3-81.8,36.8-108.6-.3Z"/>
    <path d="M299.9,258.3c.8-6.3,5.4-16.8,8.6-22.4,17.2-30.1,48.3-39.7,80.3-46.6,4.4-.2,10.7,13.1,14.1,17,20.2,22.5,56.2,23.3,77,1.1s8.9-14.5,12.5-17.5,1.4-1.1,2.9-1.1c3.6,0,17,4.4,21.3,5.8,29.8,9.4,60.8,29.3,67.8,62.2,1.1,5.4,2,15.2.3,20.4s-12.3,3.1-15.1,2.4c-7.1-1.6-4.2-9.7-4.8-15.2-3.3-27.1-37.9-48.8-63.2-51.7-25.4,36.5-79.8,39.9-111.6,9.4-2-1.9-6.6-9.3-8.6-9.4-33.8,5.3-66.1,29.5-62.5,67h-19c.6-6.8-.8-14.8,0-21.5Z"/>
    <path d="M547.6,111c5.7-1.7,21.5,4.7,27.5,7,23.8,9.1,45.9,22.6,66.2,37.8,6.1,7.7-5.5,17.8-13.3,15.3-16.5-11.2-32.8-22.8-51.2-30.8-8.3-3.6-24.7-7.3-30.9-11.1-6.5-4-4.9-16.3,1.6-18.2Z"/>
    <path d="M331.6,111c5.8-.7,8.3.5,10.3,6.2s1.6,8.7-2.7,11.4-19.4,6.7-26.3,9.7c-20.4,8.6-38.8,20.6-57.2,32.8-7,2.9-15-4.9-14.4-11.9s18.3-15.1,22.6-17.9c15.8-10,49.7-28.1,67.7-30.3Z"/>
    <path d="M341.2,473.1c.9-.9,2.2-1.5,3.4-2.1l166,.5c9.5,6,6,17.7-5.2,18.2h-157c-8.4.3-12.8-11-7.1-16.6Z"/>
    <path d="M345.6,419l165.2.3c9.6,5.4,5.5,18.3-5.4,18.5h-156c-10.7-.2-13.6-15.1-3.8-18.8Z"/>
    <path d="M446.6,525.1c6.5,5.3.5,18.9-8.2,17.7-28.2-2.1-60.3,2.8-88,0-13.9-1.4-16.7-15-4-19,30.8,2,64.7-2.6,95.1,0,1.9.2,3.6,0,5.2,1.3Z"/>
    <path d="M344.6,364l91.7-.2c9.8,1.5,10.9,18.1,0,19h-90c-8.9-2.7-11.1-15.4-1.8-18.8Z"/>
</svg>